<?xml version="1.0" encoding="UTF-8"?>
<svg id="_图层_2" data-name="图层 2" xmlns="http://www.w3.org/2000/svg" viewBox="0 0 449.85 286.51">
  <defs>
    <style>
      .cls-1 {
        fill: #0053ff;
      }

      .cls-1, .cls-2 {
        stroke-width: 0px;
      }

      .cls-2 {
        fill: #1a31ad;
      }
    </style>
  </defs>
  <g id="_图层_1-2" data-name="图层 1">
    <g>
      <path class="cls-2" d="M44.87,286.51h0c-24.78,0-44.87-20.09-44.87-44.87V59.81C0,35.03,20.09,14.94,44.87,14.94h0c24.78,0,44.87,20.09,44.87,44.87v181.83c0,24.78-20.09,44.87-44.87,44.87Z"/>
      <path class="cls-1" d="M10.83,30.61C27.14,2.76,70.47-9.15,101.82,7.89c14.38,7.82,28.35,20,37.22,33.64,23.75,36.49,44.74,74.79,66.47,112.57,1.56,2.71,1.47,7.84-.08,10.61-8.9,15.9-17.87,31.82-27.96,46.97-11.68,17.56-23.42,17.63-34.82-.36-15.48-24.42-29.63-49.68-44.26-74.64-14.03-23.93-27.74-48.05-41.99-71.85-10.42-17.41-23.53-31.78-45.56-34.22Z"/>
      <path class="cls-1" d="M314.11,30.21c19.97-25.5,50.56-35.62,81.57-26.86,30.84,8.71,47.24,30.38,52.44,61.23,1.05,6.23,1.54,12.63,1.56,18.95.12,51.56.33,103.11-.04,154.67-.25,35.14-30.12,56.45-62.57,45.32-19.13-6.56-29.75-22.32-29.82-45.2-.15-48.38-.05-96.77-.05-145.15,0-3.57.06-7.14-.02-10.71-.63-29.18-13.93-45.57-43.08-52.23Z"/>
      <path class="cls-2" d="M163.33,255.8s20.8,9.71,55.6-48.29c19.2-32,51.37-88.75,76.36-133.21,9.66-17.19,30.56-10.32,30.56,9.4v105.27s-43.37,96.58-95.32,96.58-67.2-29.76-67.2-29.76Z"/>
    </g>
  </g>
</svg>