<?xml version="1.0" encoding="UTF-8"?>
<svg id="_图层_2" data-name=" 图层 2" xmlns="http://www.w3.org/2000/svg" version="1.1" xmlns:xlink="http://www.w3.org/1999/xlink" viewBox="0 0 4474.1 850.4">
  <defs>
    <style>
      .cls-1 {
        fill: #4d6bfe;
      }

      .cls-1, .cls-2, .cls-3 {
        stroke-width: 0px;
      }

      .cls-2 {
        fill: url(#_未命名的渐变);
      }

      .cls-3 {
        fill: #fff;
      }
    </style>
    <linearGradient id="_未命名的渐变" data-name="未命名的渐变" x1="287.3" y1="118.8" x2="888.3" y2="719.7" gradientTransform="translate(0 6)" gradientUnits="userSpaceOnUse">
      <stop offset="0" stop-color="#a234ff"/>
      <stop offset=".9" stop-color="#4d6bfe"/>
    </linearGradient>
  </defs>
  <path class="cls-1" d="M3183.3,285.9h898.7c120.9,0,219,98.1,219,219h0c0,120.9-98.1,219-219,219h-1117.7v-219c0-120.9,98.1-219,219-219Z"/>
  <g id="_图层_1-2" data-name=" 图层 1-2">
    <g>
      <path class="cls-2" d="M1006.9,492.5c-11.9,74.5-41.4,141.4-88.9,200-56.2,69.4-127.5,116.4-213.2,141.3-31.8,9.2-64.2,14.4-97.3,16-86.9,4.3-167.6-16.1-241.6-61.7-55.5-34.2-100.7-79.1-136-134-.5-.7-.9-1.5-1.5-2.5,48.9-35.3,88.7-79.4,125.9-126.1,39.8-49.9,74.9-103.1,109.3-156.9,18.1-28.3,37.5-55.8,61.1-79.9,5.3-5.4,11.7-9.8,18-14.2,2.8-1.9,7.2-4,9.8-.9,1.7,2.1,1.9,6.8.8,9.5-4.6,10.8-9.2,21.8-15,31.9-25.6,44.4-50.2,89.2-72.3,135.4-20.2,42.4-38.9,85.3-51.2,130.8-5.5,20.2-10,40.7-9,61.8.4,8.4,1.8,17.1,4.4,25,3.7,11.2,10.8,20.1,23.3,22.7,7.7,1.6,15-.8,21.9-3.7,11.6-4.9,21.7-12.4,31.4-20.3,30.4-24.9,56.3-54.3,83.5-82.4,12.6-13.1,24.8-26.7,38.1-39,13.8-12.7,28.3-24.7,43.4-35.7,7.5-5.5,16.9-8.6,25.7-11.9,7.7-2.9,16.7,2.1,18.1,10.5,1.7,10.6,2.7,21.5,2.4,32.2-.4,21.9-2.5,43.8-2.6,65.7,0,13.1,1.2,26.6,4.3,39.3,5.5,22.4,18.4,39.1,42.3,44.5,13.5,3,26.7.6,39.4-3.9,36.6-13,66.5-35.7,91-65.5,27.1-32.9,45-70.5,56.7-111.2.9-3.1,1.2-6.2-1.5-8.7s-5.6-2-8.8-.9c-36.3,12.5-71.9-9-77.9-47-2.9-18.8,0-37.1,4.9-55.2,3.9-14.3,7-28.8,5.5-43.8-.6-6.2-2-12.5-6.4-17.3-7-7.7-16-8.1-25.2-6.1-17.6,3.9-33.2,12.3-48.7,21.1-36.7,21-68.5,48.8-102.2,74-13.8,10.3-27.7,20.5-43.8,27.1-5.7,2.4-11.9,4-18,5-13.9,2.3-24.7-7.5-26.3-22.5-1.8-16.2,1.1-31.8,5.5-47.1,9.6-34.2,24.7-66.3,41-97.7,21-40.6,43.8-80.1,69-118.2,8.5-12.8,16.1-26.3,19.5-41.5,1.5-6.8,2.2-14.2,1.3-21-1.6-12.3-13.8-20-26.4-19-12.6,1-24,5.6-35.1,11.1-23.9,12-45.5,27.5-66.6,43.8-34.7,26.8-67.5,56-99.4,86-9.3,8.7-18.2,17.8-27.4,26.7-31.9,30.6-63.6,61.3-95.8,91.6-18.1,17-36.7,33.6-55.6,49.7-15,12.8-32.7,20.6-52,24.3-41.9,8.1-79.8-20.8-84.7-59.2-2.7-21.6.7-42.7,7.1-63.4,16.9-55.1,44.1-104.6,81.1-148.8,44.2-52.8,98.1-92.6,161.6-119.3,37.7-15.9,77-25.9,117.8-30.4,21.9-2.4,43.7-3.1,65.6-2,95.7,4.9,180.4,38.1,254,99.4,35.3,29.4,64.9,63.9,88.8,103,27.3,44.6,45.9,92.8,55.2,144.4,8.8,48.4,9.3,96.8,1.6,145.2h.1Z"/>
      <g>
        <path class="cls-1" d="M1543.2,510.1v178c0,17.9-4.3,32.1-12.9,42.8s-22.2,16-40.7,16h-88.8c0-11.2,4-20.8,12.1-28.9,7.7-7.7,17.2-11.5,28.4-11.5h17.9c11.6,0,20.1-2.1,25.7-6.3s9.2-9.7,10.8-16.5,2.4-16.2,2.4-28.1v-145.5h-345.5c-6.3,0-11.5-2.1-15.8-6.3-4.2-4.9-6.3-10-6.3-15.2s2.2-11.1,6.6-15.5c4.4-4.4,9.5-6.6,15.5-6.6h418.5c12.2,0,22.7,4.3,31.2,12.9,8.6,8.6,12.9,18.8,12.9,30.7h-72ZM1165.1,352.5c-4.2-4.2-6.3-9.3-6.3-15.2s2.1-11,6.3-15.2,9.3-6.3,15.2-6.3h167.5v-48.3h1.6c12.9,0,24,4.5,33.1,13.6s13.7,20,13.7,32.6v2.1h151.8c11.9,0,22.1,4.2,30.5,12.6s12.6,18.6,12.6,30.5h-206.9c-1.1,2.1-2.6,4.2-4.7,6.3-9.1,11.9-22.2,24.5-39.4,37.8-41.3,30.8-90.8,51.3-148.6,61.4l-4.2.5c-5.2,0-10-1.6-14.2-4.7-5.2-3.5-8.6-8.9-10-16.3-.7-6.3.8-12.1,4.5-17.3,3.7-5.2,8.7-8.4,15-9.5,48.7-8.8,89.3-24.7,121.8-47.8,7.3-5.2,12.1-8.8,14.2-10.5h-138.1c-6,0-11-2.1-15.2-6.3h-.2ZM1412.7,678.7c-7.5,8-16.4,12.1-26.5,12.1h-160.2c-10.9,0-20-3.8-27.6-11.3-7.5-7.5-11.3-16.7-11.3-27.6v-66.2c0-10.8,3.8-20,11.3-27.6,7.5-7.5,16.7-11.3,27.6-11.3h160.2c10.2,0,19,4,26.5,12.1s11.3,17.5,11.3,28.4v63c0,10.9-3.8,20.3-11.3,28.4h0ZM1376.2,604.1c0-4.2-1.4-7.8-4.2-10.8-2.8-3-6.1-4.5-10-4.5h-111.9c-3.9,0-7.3,1.5-10.2,4.5s-4.5,6.4-4.5,10.2v30.5c0,3.9,1.5,7.3,4.5,10.2,3,3,6.4,4.5,10.2,4.5h111.9c3.8,0,7.2-1.5,10-4.5s4.2-6.6,4.2-10.8v-29.4h0ZM1546.9,417.1c4.6,1.8,8.1,4.6,10.8,8.7s3.9,8.5,3.9,13.4-.5,6.1-1.6,8.9c-2.1,6-6.3,10.3-12.6,13.1-3.5,1.4-6.5,2.1-8.9,2.1s-5.2-.7-9.4-2.1l-162.3-64.6c3.5-9.1,9.4-16.4,17.6-21.8s17.2-8.1,27.1-8.1,12.6,1.2,17.8,3.7l117.6,46.7h0Z"/>
        <path class="cls-1" d="M1681.4,328.4c-3.5,0-6.8-.9-10-2.6-3.2-1.8-5.4-4.2-6.8-7.4-1.8-3.5-2.6-6.6-2.6-9.5s.9-6.5,2.6-10c1.4-2.8,3.7-5.1,6.8-6.8,3.2-1.8,6.5-2.6,10-2.6h412.2c10.8,0,20.3,3.8,28.4,11.3s12.2,16.7,12.6,27.6h-453.2ZM2093.9,411.4c8.9,9.5,13.4,20.7,13.4,33.6v233.2c0,12.6-4.5,23.5-13.4,32.6s-19.7,13.7-32.3,13.7h-342.4c-12.6,0-23.4-4.5-32.3-13.7-8.9-9.1-13.4-20.1-13.4-33.1v-281c12.9.4,23.9,5.2,32.8,14.7s13.4,20.7,13.4,33.6v213.7c0,7.3,2.6,13.7,7.9,18.9,5.2,5.2,11.7,7.9,19.4,7.9h289.4c6.7,0,12.4-2.5,17.3-7.6s7.3-11,7.3-17.6v-263.6c12.9.4,23.9,5.2,32.8,14.7h0ZM1997.5,398.5c9.1,8.9,13.7,19.7,13.7,32.3v148.6c0,12.3-4.6,22.8-13.7,31.8-9.1,8.9-19.8,13.4-32,13.4h-152.8c-12.6,0-23.4-4.5-32.3-13.4s-13.4-19.5-13.4-31.8v-148.6c0-12.6,4.5-23.4,13.4-32.3s19.7-13.4,32.3-13.4h152.8c12.2,0,22.9,4.5,32,13.4h0ZM1818.2,422.4c-4,4.2-6,9.3-6,15.2v49.9h57.2v-71.4h-36.8c-5.6,0-10.4,2.1-14.4,6.3h0ZM1869.4,593.1v-70.9h-57.2v49.9c0,5.6,2,10.5,6,14.7s8.8,6.3,14.4,6.3h36.8,0ZM1966.5,437.6c0-6-2.2-11-6.6-15.2s-9.4-6.3-15-6.3h-36.8v71.4h58.3v-49.9h0ZM1960,586.8c4.4-4.2,6.6-9.1,6.6-14.7v-49.9h-58.3v70.9h36.8c5.6,0,10.6-2.1,15-6.3h0Z"/>
        <path class="cls-1" d="M2505.3,670.8c0,4.5-1.4,8.8-4.2,12.6-1.8,3.2-4.2,5.6-7.4,7.3-3.1,1.8-6.6,2.6-10.5,2.6s-8.7-1.2-12.3-3.7c-3.7-2.5-6.2-5.8-7.6-10l-116.6-287.8c-1.1-2.1-2.6-3.1-4.7-3.1s-3.5,1-4.2,3.1l-74.1,188h111.9c12.2,0,22.8,4.4,31.5,13.1,8.8,8.8,13.1,19.3,13.1,31.5h-174.4l-21.5,54.6c-1.8,4.2-4.5,7.6-8.1,10.2s-7.8,3.9-12.3,3.9-6.9-.9-10.2-2.6c-3.3-1.8-5.9-4-7.6-6.8-2.8-4.5-4.2-8.8-4.2-12.6s.5-5.1,1.6-7.9l127.1-321.4c2.4-6.3,6.6-11.5,12.3-15.5,5.8-4,12.2-6,19.2-6s12.8,1.9,18.4,5.8c5.6,3.9,9.6,8.9,12.1,15.2l131.3,321.4c1.1,2.8,1.6,5.4,1.6,7.9h0l-.2.2Z"/>
        <path class="cls-1" d="M2787.6,662.4c8.6,8.8,12.9,19.1,12.9,31h-231.1c-6.3,0-11.6-2.1-15.8-6.3s-6.3-9.3-6.3-15.2,2.1-11.6,6.3-16,9.4-6.6,15.8-6.6h82.4v-284.1h-46.9c-6,0-11.2-2.3-15.8-6.8-4.2-4.9-6.3-10.1-6.3-15.8s2.1-11.1,6.3-15.5,9.4-6.6,15.8-6.6h115.4c5.9,0,11.6,1.1,17.1,3.4,5.4,2.3,10.1,5.5,13.9,9.7,8.8,8.8,13.1,19.3,13.1,31.5h-68.6v284.1h60.4c12.2,0,22.7,4.4,31.2,13.1h.2Z"/>
      </g>
    </g>
  </g>
  <g>
    <path class="cls-3" d="M3247.6,431.8h47.3c34.6,0,57.2,12.7,57.2,41.7s-9.2,32.3-26.1,37.4v1.2c21.7,3.8,36.5,17.7,36.5,41.4s-25.4,49.9-64,49.9h-50.9v-171.6ZM3290.5,506.7c34.1,0,47.6-12,47.6-31.8s-15.8-31.5-46.1-31.5h-30.1v63.3h28.7ZM3295.4,591.7c33,0,53.2-11.8,53.2-38.4s-19.3-35.3-53.2-35.3h-33.7v73.7h33.7Z"/>
    <path class="cls-3" d="M3387,540.8c0-41,26.8-66.2,55.1-66.2s48.5,21.7,48.5,58.4-.2,6.8-.7,10.1h-89c.7,30.4,18.8,51.8,45.9,51.8s23.8-4.2,33.2-10.8l5.4,10.1c-10.1,6.4-21.9,12.2-39.8,12.2-32.5,0-58.6-24.5-58.6-65.7ZM3477.9,532.1c0-30.4-13.7-45.7-35.8-45.7s-38.6,17-41.2,45.7h77Z"/>
    <path class="cls-3" d="M3511.3,571.6c0-27.5,24.7-41,79.8-47.1.5-18.6-4.7-37.9-28.5-37.9s-30.6,8-39.6,14.4l-5.9-10.1c9.4-6.4,26.8-16.2,47.1-16.2,30.1,0,40.7,21.4,40.7,49.2v79.6h-11.3l-1.4-16h-.9c-12.5,10.4-27.3,19.1-43.6,19.1s-36.5-11.3-36.5-34.8ZM3591.1,575.4v-40.7c-49.4,5.4-66.2,17.2-66.2,36.3s11.5,23.8,25.7,23.8,25.9-6.6,40.5-19.3Z"/>
    <path class="cls-3" d="M3648.8,567.9v-78.4h-19.3v-10.4l19.8-1.4,1.6-36h11.5v36h36v11.8h-36v79.3c0,15.8,4.2,25.9,21,25.9s11.1-1.6,15.3-3.8l3.3,10.8c-7.3,2.6-15.3,4.7-21,4.7-24.7,0-32.3-15.5-32.3-38.6Z"/>
    <path class="cls-3" d="M3778.8,591.4h39.1v-134.4h-30.4v-9.2c14.1-2.4,24.7-6.1,33-11.1h11.1v154.7h35.8v12h-88.5v-12Z"/>
    <path class="cls-3" d="M3900.5,593.8c0-8,5.7-12.9,12-12.9s12,4.9,12,12.9-5.7,12.7-12,12.7-12-4.9-12-12.7Z"/>
    <path class="cls-3" d="M3954.4,519.6c0-55.3,18.4-85.9,50.6-85.9s50.4,30.6,50.4,85.9-18.4,86.9-50.4,86.9-50.6-31.5-50.6-86.9ZM4041.7,519.6c0-50.4-14.6-74.4-36.7-74.4s-37,24-37,74.4,14.6,75.1,37,75.1,36.7-24.7,36.7-75.1Z"/>
  </g>
</svg>