<?xml version="1.0" encoding="UTF-8"?>
<svg id="_图层_2" data-name="图层 2" xmlns="http://www.w3.org/2000/svg" xmlns:xlink="http://www.w3.org/1999/xlink" viewBox="0 0 2627.17 850.39">
  <defs>
    <style>
      .cls-1 {
        fill: #4d6bfe;
      }

      .cls-1, .cls-2, .cls-3, .cls-4 {
        stroke-width: 0px;
      }

      .cls-2 {
        fill: url(#_未命名的渐变_123);
      }

      .cls-3 {
        fill: url(#_未命名的渐变_21-2);
      }

      .cls-4 {
        fill: url(#_未命名的渐变_21);
      }
    </style>
    <linearGradient id="_未命名的渐变_123" data-name="未命名的渐变 123" x1="114.05" y1="124.78" x2="714.99" y2="725.72" gradientUnits="userSpaceOnUse">
      <stop offset="0" stop-color="#a234ff"/>
      <stop offset=".95" stop-color="#4d6bfe"/>
    </linearGradient>
    <linearGradient id="_未命名的渐变_21" data-name="未命名的渐变 21" x1="749.54" y1="451.01" x2="763.06" y2="451.01" gradientUnits="userSpaceOnUse">
      <stop offset="0" stop-color="#627dfe"/>
      <stop offset=".95" stop-color="#4d6bfe"/>
    </linearGradient>
    <linearGradient id="_未命名的渐变_21-2" data-name="未命名的渐变 21" x1="734.65" y1="450.63" x2="746.55" y2="450.63" xlink:href="#_未命名的渐变_21"/>
  </defs>
  <g id="_图层_1-2" data-name="图层 1">
    <g>
      <g>
        <path class="cls-2" d="M833.58,492.54c-11.94,74.52-41.42,141.36-88.92,200.02-56.21,69.41-127.47,116.4-213.24,141.28-31.77,9.22-64.25,14.37-97.3,15.99-86.89,4.28-167.56-16.11-241.58-61.73-55.5-34.2-100.73-79.11-135.98-134.01-.46-.72-.86-1.47-1.46-2.49,48.89-35.35,88.7-79.43,125.92-126.07,39.82-49.91,74.95-103.1,109.28-156.85,18.1-28.34,37.46-55.78,61.07-79.88,5.31-5.42,11.73-9.84,18.02-14.17,2.78-1.9,7.18-4.02,9.76-.88,1.69,2.07,1.91,6.78.79,9.46-4.56,10.83-9.19,21.75-15.05,31.91-25.58,44.35-50.24,89.18-72.26,135.42-20.19,42.37-38.86,85.35-51.21,130.79-5.5,20.23-9.98,40.71-9.02,61.81.38,8.41,1.76,17.07,4.41,25.04,3.72,11.19,10.83,20.11,23.3,22.73,7.69,1.61,15.02-.78,21.94-3.66,11.65-4.87,21.67-12.39,31.41-20.34,30.41-24.86,56.3-54.27,83.45-82.41,12.63-13.09,24.78-26.71,38.14-39.01,13.77-12.68,28.29-24.69,43.41-35.72,7.49-5.47,16.87-8.56,25.72-11.86,7.73-2.88,16.74,2.12,18.06,10.46,1.67,10.6,2.65,21.45,2.44,32.17-.42,21.91-2.53,43.8-2.56,65.7-.02,13.12,1.19,26.58,4.29,39.29,5.47,22.42,18.43,39.12,42.35,44.47,13.45,3.01,26.71.63,39.37-3.88,36.59-13.03,66.47-35.69,91.05-65.47,27.12-32.86,45-70.51,56.74-111.25.91-3.15,1.16-6.19-1.46-8.71-2.66-2.54-5.62-2-8.75-.92-36.35,12.48-71.94-9.05-77.88-47.04-2.94-18.83-.12-37.14,4.86-55.25,3.94-14.34,6.99-28.8,5.46-43.78-.64-6.23-2-12.47-6.41-17.32-6.96-7.67-16.03-8.14-25.24-6.11-17.56,3.88-33.24,12.33-48.7,21.15-36.74,20.96-68.55,48.75-102.2,73.98-13.79,10.34-27.74,20.51-43.79,27.1-5.73,2.35-11.88,3.98-17.99,4.97-13.92,2.26-24.67-7.47-26.34-22.45-1.81-16.21,1.13-31.76,5.47-47.15,9.65-34.25,24.72-66.27,41.04-97.71,21.04-40.56,43.77-80.15,69.04-118.25,8.52-12.84,16.06-26.33,19.45-41.51,1.51-6.79,2.22-14.15,1.35-21-1.56-12.28-13.75-20.01-26.37-18.97-12.63,1.04-23.99,5.56-35.06,11.11-23.9,11.99-45.49,27.54-66.56,43.83-34.72,26.84-67.46,55.99-99.42,86.01-9.3,8.73-18.24,17.84-27.44,26.67-31.87,30.57-63.59,61.31-95.76,91.56-18.11,17.04-36.74,33.56-55.64,49.72-14.97,12.81-32.72,20.62-51.98,24.34-41.94,8.11-79.84-20.79-84.66-59.18-2.73-21.65.72-42.72,7.05-63.41,16.88-55.13,44.11-104.65,81.05-148.83,44.18-52.84,98.12-92.59,161.56-119.35,37.73-15.92,77.02-25.88,117.75-30.37,21.85-2.41,43.72-3.14,65.63-2.02,95.68,4.91,180.35,38.12,253.98,99.42,35.31,29.4,64.86,63.91,88.8,103,27.33,44.62,45.86,92.75,55.23,144.37,8.77,48.36,9.35,96.76,1.59,145.24Z"/>
        <path class="cls-4" d="M753.13,450.05c-1.87,2.58,1.22,6.35-3.58,8.25,0-4.75-.08-8.82.09-12.88.03-.62,1.34-1.76,1.84-1.65,1.01.22,2.38.94,2.7,1.8.89,2.36,1.32,4.9,1.92,7.33,3.3-2.2-.49-9.32,6.94-9.18,0,4.34.05,8.28-.06,12.22-.02.62-.77,1.22-1.18,1.83-.49-.7-1.32-1.36-1.4-2.11-.21-1.81-.07-3.67-.82-5.65-.41,1.89-.68,3.83-1.3,5.65-.25.76-1.21,1.74-1.89,1.77-.64.03-1.66-.94-1.92-1.68-.61-1.69-.86-3.52-1.35-5.7Z"/>
        <path class="cls-3" d="M738.94,446.62c-1.82-.4-3.01-.67-4.29-.96,1.71-2.56,8.21-2.85,11.91-.32-1.62.47-2.84.83-4.09,1.2-2.05,3.29,1.36,8.23-2.01,11.15-.5-.11-1.01-.23-1.51-.34v-10.72Z"/>
      </g>
      <g>
        <path class="cls-1" d="M1369.95,510.09v178.03c0,17.86-4.29,32.12-12.87,42.8-8.58,10.68-22.15,16.02-40.7,16.02h-88.75c0-11.21,4.02-20.83,12.08-28.88,7.7-7.71,17.15-11.55,28.36-11.55h17.86c11.55,0,20.13-2.1,25.73-6.3,5.6-4.2,9.19-9.71,10.77-16.54s2.36-16.2,2.36-28.1v-145.47h-345.55c-6.3,0-11.55-2.1-15.75-6.3-4.2-4.9-6.3-9.98-6.3-15.23,0-5.95,2.18-11.11,6.56-15.49,4.38-4.37,9.54-6.56,15.49-6.56h418.55c12.25,0,22.66,4.29,31.25,12.87,8.57,8.58,12.87,18.82,12.87,30.72h-71.95ZM991.84,352.54c-4.2-4.2-6.3-9.27-6.3-15.23s2.1-11.03,6.3-15.23c4.2-4.2,9.27-6.3,15.23-6.3h167.52v-48.31h1.58c12.95,0,23.98,4.55,33.08,13.65,9.1,9.11,13.65,19.96,13.65,32.56v2.1h151.77c11.9,0,22.06,4.2,30.46,12.6s12.6,18.56,12.6,30.46h-206.91c-1.05,2.1-2.63,4.2-4.73,6.3-9.11,11.91-22.24,24.51-39.39,37.81-41.31,30.81-90.85,51.29-148.62,61.44l-4.2.53c-5.25,0-9.98-1.58-14.18-4.73-5.25-3.5-8.58-8.93-9.98-16.28-.71-6.3.79-12.08,4.46-17.33,3.68-5.25,8.67-8.4,14.97-9.45,48.66-8.75,89.28-24.68,121.84-47.79,7.35-5.25,12.08-8.75,14.18-10.5h-138.12c-5.96,0-11.03-2.1-15.23-6.3ZM1239.45,678.66c-7.53,8.05-16.37,12.08-26.52,12.08h-160.17c-10.86,0-20.04-3.77-27.57-11.29-7.53-7.53-11.29-16.71-11.29-27.57v-66.17c0-10.85,3.76-20.04,11.29-27.57,7.53-7.52,16.71-11.29,27.57-11.29h160.17c10.15,0,18.99,4.03,26.52,12.08,7.52,8.06,11.29,17.51,11.29,28.36v63.02c0,10.86-3.77,20.3-11.29,28.36ZM1202.95,604.09c0-4.2-1.4-7.79-4.2-10.77-2.81-2.97-6.13-4.46-9.98-4.46h-111.86c-3.86,0-7.27,1.49-10.24,4.46s-4.46,6.39-4.46,10.24v30.46c0,3.86,1.49,7.27,4.46,10.24,2.97,2.98,6.38,4.46,10.24,4.46h111.86c3.85,0,7.17-1.49,9.98-4.46,2.8-2.97,4.2-6.56,4.2-10.77v-29.41ZM1373.63,417.13c4.55,1.76,8.14,4.64,10.77,8.67,2.63,4.03,3.94,8.49,3.94,13.39,0,3.15-.53,6.13-1.58,8.93-2.1,5.96-6.3,10.33-12.6,13.13-3.5,1.4-6.48,2.1-8.93,2.1-2.1,0-5.25-.7-9.45-2.1l-162.27-64.59c3.5-9.1,9.36-16.36,17.59-21.79,8.22-5.42,17.24-8.14,27.05-8.14,6.65,0,12.6,1.23,17.85,3.68l117.63,46.74Z"/>
        <path class="cls-1" d="M1508.07,328.38c-3.5,0-6.83-.87-9.98-2.63-3.15-1.75-5.43-4.2-6.83-7.35-1.76-3.5-2.63-6.65-2.63-9.45,0-3.15.87-6.47,2.63-9.98,1.39-2.8,3.68-5.07,6.83-6.83,3.15-1.75,6.47-2.63,9.98-2.63h412.25c10.85,0,20.3,3.77,28.36,11.29,8.05,7.53,12.25,16.72,12.6,27.57h-453.21ZM1920.58,411.36c8.93,9.45,13.39,20.66,13.39,33.61v233.17c0,12.6-4.46,23.45-13.39,32.56-8.93,9.1-19.69,13.65-32.3,13.65h-342.4c-12.6,0-23.37-4.55-32.3-13.65-8.93-9.11-13.39-20.14-13.39-33.08v-280.96c12.95.35,23.89,5.25,32.82,14.7,8.93,9.45,13.39,20.66,13.39,33.61v213.74c0,7.35,2.63,13.65,7.88,18.91,5.25,5.25,11.73,7.88,19.43,7.88h289.36c6.65,0,12.42-2.54,17.33-7.61,4.9-5.08,7.35-10.95,7.35-17.59v-263.63c12.95.35,23.89,5.25,32.82,14.7ZM1824.21,398.49c9.1,8.93,13.65,19.69,13.65,32.3v148.62c0,12.26-4.55,22.84-13.65,31.77-9.11,8.93-19.78,13.39-32.04,13.39h-152.82c-12.6,0-23.37-4.46-32.3-13.39-8.93-8.93-13.39-19.51-13.39-31.77v-148.62c0-12.6,4.46-23.37,13.39-32.3s19.69-13.39,32.3-13.39h152.82c12.25,0,22.93,4.46,32.04,13.39ZM1644.87,422.39c-4.03,4.2-6.04,9.28-6.04,15.23v49.89h57.24v-71.42h-36.76c-5.6,0-10.42,2.1-14.44,6.3ZM1696.07,593.06v-70.9h-57.24v49.89c0,5.6,2.01,10.5,6.04,14.71,4.02,4.2,8.84,6.3,14.44,6.3h36.76ZM1793.23,437.61c0-5.95-2.19-11.03-6.56-15.23-4.38-4.2-9.37-6.3-14.97-6.3h-36.76v71.42h58.29v-49.89ZM1786.66,586.76c4.37-4.2,6.56-9.1,6.56-14.71v-49.89h-58.29v70.9h36.76c5.6,0,10.58-2.1,14.97-6.3Z"/>
        <path class="cls-1" d="M2332.03,670.78c0,4.55-1.4,8.75-4.2,12.6-1.76,3.15-4.2,5.6-7.35,7.35-3.15,1.75-6.65,2.62-10.5,2.62-4.55,0-8.67-1.23-12.34-3.68-3.68-2.45-6.22-5.78-7.62-9.98l-116.58-287.78c-1.05-2.1-2.62-3.15-4.73-3.15s-3.5,1.05-4.2,3.15l-74.05,188h111.86c12.25,0,22.75,4.38,31.51,13.13,8.75,8.75,13.13,19.26,13.13,31.51h-174.35l-21.53,54.62c-1.76,4.2-4.46,7.61-8.14,10.24s-7.79,3.94-12.34,3.94c-3.5,0-6.92-.88-10.24-2.62-3.33-1.76-5.87-4.03-7.61-6.83-2.81-4.55-4.2-8.76-4.2-12.6,0-2.45.52-5.08,1.58-7.88l127.09-321.39c2.45-6.3,6.56-11.46,12.34-15.49,5.78-4.02,12.16-6.04,19.17-6.04,6.65,0,12.78,1.93,18.38,5.78,5.6,3.86,9.62,8.93,12.08,15.23l131.29,321.39c1.05,2.8,1.58,5.42,1.58,7.88Z"/>
        <path class="cls-1" d="M2614.3,662.38c8.58,8.75,12.87,19.08,12.87,30.98h-231.07c-6.3,0-11.55-2.1-15.75-6.3s-6.3-9.28-6.3-15.23c0-6.3,2.1-11.63,6.3-16.02,4.2-4.37,9.45-6.56,15.75-6.56h82.45v-284.11h-46.88c-5.96,0-11.21-2.27-15.75-6.83-4.2-4.9-6.3-10.15-6.3-15.75,0-5.95,2.1-11.11,6.3-15.49,4.2-4.37,9.45-6.56,15.75-6.56h115.42c5.95,0,11.64,1.14,17.07,3.41,5.42,2.28,10.06,5.51,13.92,9.72,8.75,8.75,13.13,19.26,13.13,31.51h-68.55v284.11h60.39c12.25,0,22.66,4.38,31.25,13.13Z"/>
      </g>
    </g>
  </g>
</svg>